<svg width="60" height="61" viewBox="0 0 60 61" fill="none" xmlns="http://www.w3.org/2000/svg">
<rect y="0.5" width="60" height="60" rx="8" fill="#FFE6F9"/>
<path d="M43.6364 29.2727V23.5455C43.6364 18.7727 41.7273 16.8636 36.9545 16.8636H31.2273C26.4545 16.8636 24.5455 18.7727 24.5455 23.5455V25.0455H28.7727C33.5455 25.0455 35.4545 26.9545 35.4545 31.7273V35.9545H36.9545C41.7273 35.9545 43.6364 34.0455 43.6364 29.2727Z" stroke="#9B0175" stroke-width="2.04545" stroke-linecap="round" stroke-linejoin="round"/>
<path d="M35.4546 37.4546V31.7273C35.4546 26.9546 33.5455 25.0455 28.7727 25.0455H23.0455C18.2727 25.0455 16.3636 26.9546 16.3636 31.7273V37.4546C16.3636 42.2273 18.2727 44.1364 23.0455 44.1364H28.7727C33.5455 44.1364 35.4546 42.2273 35.4546 37.4546Z" stroke="#9B0175" stroke-width="2.04545" stroke-linecap="round" stroke-linejoin="round"/>
<path d="M21.9274 34.5909L24.5865 37.25L29.891 31.9318" stroke="#9B0175" stroke-width="2.04545" stroke-linecap="round" stroke-linejoin="round"/>
</svg>
