<svg width="20" height="20" viewBox="0 0 20 20" fill="none" xmlns="http://www.w3.org/2000/svg">
<path opacity="0.4" d="M17.0833 8.49101H14.675C12.7 8.49101 11.0916 6.88268 11.0916 4.90768V2.49935C11.0916 2.04102 10.7166 1.66602 10.2583 1.66602H6.72498C4.15831 1.66602 2.08331 3.33268 2.08331 6.30768V13.691C2.08331 16.666 4.15831 18.3327 6.72498 18.3327H13.275C15.8416 18.3327 17.9166 16.666 17.9166 13.691V9.32435C17.9166 8.86601 17.5416 8.49101 17.0833 8.49101Z" fill="white"/>
<path d="M13.1664 1.84207C12.8248 1.5004 12.2331 1.73373 12.2331 2.20873V5.11707C12.2331 6.33373 13.2664 7.34207 14.5248 7.34207C15.3164 7.3504 16.4164 7.3504 17.3581 7.3504C17.8331 7.3504 18.0831 6.79207 17.7498 6.45873C16.5498 5.2504 14.3998 3.0754 13.1664 1.84207Z" fill="white"/>
<path d="M9.60867 10.391L7.942 8.72435C7.93367 8.71602 7.92534 8.71602 7.92534 8.70768C7.87534 8.65768 7.80867 8.61602 7.742 8.58268C7.73367 8.58268 7.73367 8.58268 7.72534 8.58268C7.65867 8.55768 7.592 8.54935 7.52534 8.54102C7.50034 8.54102 7.48367 8.54102 7.45867 8.54102C7.40867 8.54102 7.35034 8.55768 7.30034 8.57435C7.27534 8.58268 7.25867 8.59102 7.242 8.59935C7.17534 8.63268 7.10867 8.66602 7.05867 8.72435L5.392 10.391C5.15034 10.6327 5.15034 11.0327 5.392 11.2743C5.63367 11.516 6.03367 11.516 6.27534 11.2743L6.87534 10.6743V14.166C6.87534 14.5077 7.15867 14.791 7.50034 14.791C7.842 14.791 8.12534 14.5077 8.12534 14.166V10.6743L8.72534 11.2743C8.85034 11.3993 9.00867 11.4577 9.167 11.4577C9.32534 11.4577 9.48367 11.3993 9.60867 11.2743C9.85034 11.0327 9.85034 10.6327 9.60867 10.391Z" fill="white"/>
</svg>
