<svg width="22" height="22" viewBox="0 0 22 22" fill="none" xmlns="http://www.w3.org/2000/svg">
<path d="M14.7207 1.89453H7.53199C4.38694 1.89453 3.03906 3.6917 3.03906 6.38746V15.3733C3.03906 18.0691 4.38694 19.8662 7.53199 19.8662H14.7207C17.8657 19.8662 19.2136 18.0691 19.2136 15.3733V6.38746C19.2136 3.6917 17.8657 1.89453 14.7207 1.89453ZM7.53199 11.105H11.1263C11.4947 11.105 11.8003 11.4105 11.8003 11.779C11.8003 12.1474 11.4947 12.4529 11.1263 12.4529H7.53199C7.16357 12.4529 6.85805 12.1474 6.85805 11.779C6.85805 11.4105 7.16357 11.105 7.53199 11.105ZM14.7207 16.0472H7.53199C7.16357 16.0472 6.85805 15.7417 6.85805 15.3733C6.85805 15.0049 7.16357 14.6994 7.53199 14.6994H14.7207C15.0891 14.6994 15.3946 15.0049 15.3946 15.3733C15.3946 15.7417 15.0891 16.0472 14.7207 16.0472ZM16.9671 8.40927H15.17C13.8041 8.40927 12.6989 7.30401 12.6989 5.93816V4.14099C12.6989 3.77257 13.0044 3.46705 13.3728 3.46705C13.7412 3.46705 14.0467 3.77257 14.0467 4.14099V5.93816C14.0467 6.55819 14.5499 7.06139 15.17 7.06139H16.9671C17.3355 7.06139 17.6411 7.36691 17.6411 7.73533C17.6411 8.10375 17.3355 8.40927 16.9671 8.40927Z" fill="#707070"/>
</svg>
