<svg width="22" height="22" viewBox="0 0 22 22" fill="none" xmlns="http://www.w3.org/2000/svg">
<path d="M19.0632 7.48621L13.1775 2.77762C12.0273 1.86106 10.2302 1.85208 9.08895 2.76863L3.20322 7.48621C2.35855 8.16014 1.84636 9.50802 2.02607 10.5684L3.15829 17.3437C3.41888 18.8623 4.82966 20.0574 6.36624 20.0574H15.8912C17.4098 20.0574 18.8476 18.8353 19.1082 17.3347L20.2404 10.5594C20.4021 9.50802 19.8899 8.16014 19.0632 7.48621ZM11.8027 16.4631C11.8027 16.8315 11.4972 17.137 11.1287 17.137C10.7603 17.137 10.4548 16.8315 10.4548 16.4631V13.7673C10.4548 13.3989 10.7603 13.0934 11.1287 13.0934C11.4972 13.0934 11.8027 13.3989 11.8027 13.7673V16.4631Z" fill="#707070"/>
</svg>
