<svg width="18" height="17" viewBox="0 0 18 17" fill="none" xmlns="http://www.w3.org/2000/svg">
<path d="M15.6199 5.13379L13.3733 14.1538C13.2133 14.8271 12.6133 15.2938 11.9199 15.2938H3.15992C2.15326 15.2938 1.43327 14.3071 1.73327 13.3404L4.53993 4.32715C4.73326 3.70048 5.31327 3.26709 5.9666 3.26709H14.1666C14.7999 3.26709 15.3266 3.65376 15.5466 4.18709C15.6733 4.47376 15.6999 4.80046 15.6199 5.13379Z" stroke="#C3C3C3" stroke-width="1.5" stroke-miterlimit="10"/>
<path d="M11.6665 15.2936H14.8532C15.7132 15.2936 16.3865 14.567 16.3265 13.707L15.6665 4.62695" stroke="#C3C3C3" stroke-width="1.5" stroke-miterlimit="10" stroke-linecap="round" stroke-linejoin="round"/>
<path d="M7.45312 4.88045L8.14646 2.00049" stroke="#C3C3C3" stroke-width="1.5" stroke-miterlimit="10" stroke-linecap="round" stroke-linejoin="round"/>
<path d="M11.9199 4.88696L12.5466 1.99365" stroke="#C3C3C3" stroke-width="1.5" stroke-miterlimit="10" stroke-linecap="round" stroke-linejoin="round"/>
<path d="M6.1333 8.62695H11.4666" stroke="#C3C3C3" stroke-width="1.5" stroke-miterlimit="10" stroke-linecap="round" stroke-linejoin="round"/>
<path d="M5.4668 11.2935H10.8001" stroke="#C3C3C3" stroke-width="1.5" stroke-miterlimit="10" stroke-linecap="round" stroke-linejoin="round"/>
</svg>
