<svg width="22" height="22" viewBox="0 0 22 22" fill="none" xmlns="http://www.w3.org/2000/svg">
<path d="M15.6194 1.80029H6.63355C4.15346 1.80029 2.14062 3.80414 2.14062 6.27525V11.6488V12.5474C2.14062 15.0185 4.15346 17.0223 6.63355 17.0223H7.98143C8.22404 17.0223 8.54753 17.1841 8.70029 17.3818L10.0482 19.1699C10.6412 19.9607 11.6117 19.9607 12.2048 19.1699L13.5527 17.3818C13.7234 17.1571 13.993 17.0223 14.2715 17.0223H15.6194C18.0995 17.0223 20.1123 15.0185 20.1123 12.5474V6.27525C20.1123 3.80414 18.0995 1.80029 15.6194 1.80029ZM12.0251 12.3587H6.63355C6.26513 12.3587 5.95961 12.0531 5.95961 11.6847C5.95961 11.3163 6.26513 11.0108 6.63355 11.0108H12.0251C12.3935 11.0108 12.699 11.3163 12.699 11.6847C12.699 12.0531 12.3935 12.3587 12.0251 12.3587ZM15.6194 7.86574H6.63355C6.26513 7.86574 5.95961 7.56022 5.95961 7.1918C5.95961 6.82338 6.26513 6.51786 6.63355 6.51786H15.6194C15.9878 6.51786 16.2933 6.82338 16.2933 7.1918C16.2933 7.56022 15.9878 7.86574 15.6194 7.86574Z" fill="#707070"/>
</svg>
