<svg width="22" height="23" viewBox="0 0 22 23" fill="none" xmlns="http://www.w3.org/2000/svg">
<path d="M5.70767 1.80762H3.06583C1.92462 1.80762 1.2417 2.49054 1.2417 3.63174V6.27358C1.2417 7.41479 1.92462 8.09771 3.06583 8.09771H5.70767C6.84887 8.09771 7.53179 7.41479 7.53179 6.27358V3.63174C7.53179 2.49054 6.84887 1.80762 5.70767 1.80762ZM6.15696 5.90516C6.3816 6.12981 6.3816 6.49823 6.15696 6.72288C6.04014 6.83071 5.88738 6.88462 5.74361 6.88462C5.59984 6.88462 5.45606 6.83071 5.33925 6.72288L4.37776 5.77038L3.44323 6.72288C3.32642 6.83071 3.18264 6.88462 3.0209 6.88462C2.87712 6.88462 2.73335 6.83071 2.61653 6.72288C2.39189 6.49823 2.39189 6.12981 2.61653 5.90516L3.57802 4.95266L2.62552 4.00915C2.40087 3.7845 2.40087 3.41608 2.62552 3.19144C2.85017 2.96679 3.21859 2.96679 3.44323 3.19144L4.37776 4.14394L5.33026 3.19144C5.55491 2.96679 5.92333 2.96679 6.14797 3.19144C6.37262 3.41608 6.37262 3.7845 6.14797 4.00915L5.20446 4.95266L6.15696 5.90516Z" fill="#707070"/>
<path d="M19.6628 15.1247C19.6628 15.2594 19.6179 15.3942 19.5011 15.511C18.1981 16.823 15.8798 19.1593 14.5499 20.4982C14.4331 20.624 14.2803 20.6779 14.1275 20.6779C13.831 20.6779 13.5435 20.4443 13.5435 20.1028V16.9578C13.5435 15.6458 14.6577 14.5585 16.0236 14.5585C16.8772 14.5496 18.0633 14.5496 19.0787 14.5496C19.4292 14.5496 19.6628 14.8281 19.6628 15.1247Z" fill="#707070"/>
<path d="M19.6628 15.1247C19.6628 15.2594 19.6179 15.3942 19.5011 15.511C18.1981 16.823 15.8798 19.1593 14.5499 20.4982C14.4331 20.624 14.2803 20.6779 14.1275 20.6779C13.831 20.6779 13.5435 20.4443 13.5435 20.1028V16.9578C13.5435 15.6458 14.6577 14.5585 16.0236 14.5585C16.8772 14.5496 18.0633 14.5496 19.0787 14.5496C19.4292 14.5496 19.6628 14.8281 19.6628 15.1247Z" fill="#707070"/>
<path d="M15.2868 2.70605H9.77852C9.2843 2.70605 8.87994 3.11042 8.87994 3.60464V6.74969C8.87994 8.24134 7.67583 9.44544 6.18418 9.44544H3.48843C2.99421 9.44544 2.58984 9.8498 2.58984 10.344V16.3016C2.58984 18.7188 4.54876 20.6778 6.96595 20.6778H11.2971C11.7914 20.6778 12.1957 20.2734 12.1957 19.7792V16.9576C12.1957 14.8909 13.912 13.2105 16.0237 13.2105C16.4999 13.2015 17.6591 13.2015 18.7644 13.2015C19.2586 13.2015 19.663 12.8061 19.663 12.3029V7.08216C19.663 4.66497 17.704 2.70605 15.2868 2.70605ZM8.17904 16.1938H5.80678C5.43836 16.1938 5.13284 15.8883 5.13284 15.5199C5.13284 15.1425 5.43836 14.837 5.80678 14.837H8.17904C8.56543 14.837 8.85298 15.1425 8.85298 15.5199C8.85298 15.8883 8.56543 16.1938 8.17904 16.1938ZM10.6861 12.8601H5.80678C5.43836 12.8601 5.13284 12.5545 5.13284 12.1861C5.13284 11.8087 5.43836 11.5032 5.80678 11.5032H10.6861C11.0545 11.5032 11.369 11.8087 11.369 12.1861C11.369 12.5545 11.0545 12.8601 10.6861 12.8601Z" fill="#707070"/>
</svg>
