<svg width="60" height="61" viewBox="0 0 60 61" fill="none" xmlns="http://www.w3.org/2000/svg">
<rect y="0.5" width="60" height="60" rx="8" fill="#FFFCDC"/>
<path d="M24.5455 16.8636V20.9545" stroke="#EBBC00" stroke-width="2.04545" stroke-miterlimit="10" stroke-linecap="round" stroke-linejoin="round"/>
<path d="M35.4545 16.8636V20.9545" stroke="#EBBC00" stroke-width="2.04545" stroke-miterlimit="10" stroke-linecap="round" stroke-linejoin="round"/>
<path d="M38.4545 43.3182C40.8645 43.3182 42.8181 41.3645 42.8181 38.9546C42.8181 36.5446 40.8645 34.5909 38.4545 34.5909C36.0445 34.5909 34.0909 36.5446 34.0909 38.9546C34.0909 41.3645 36.0445 43.3182 38.4545 43.3182Z" stroke="#EBBC00" stroke-width="2.04545" stroke-linecap="round" stroke-linejoin="round"/>
<path d="M43.6363 44.1364L42.2727 42.7727" stroke="#EBBC00" stroke-width="2.04545" stroke-linecap="round" stroke-linejoin="round"/>
<path d="M18.4091 26.5318H41.5909" stroke="#EBBC00" stroke-width="2.04545" stroke-miterlimit="10" stroke-linecap="round" stroke-linejoin="round"/>
<path d="M31.8681 44.1364H24.5454C19.7727 44.1364 17.7272 41.4091 17.7272 37.3182V25.7273C17.7272 21.6364 19.7727 18.9091 24.5454 18.9091H35.4545C40.2272 18.9091 42.2727 21.6364 42.2727 25.7273V31.8636" stroke="#EBBC00" stroke-width="2.04545" stroke-miterlimit="10" stroke-linecap="round" stroke-linejoin="round"/>
<path d="M29.9938 32.8182H30.0061" stroke="#EBBC00" stroke-width="2.72727" stroke-linecap="round" stroke-linejoin="round"/>
<path d="M24.9468 32.8182H24.959" stroke="#EBBC00" stroke-width="2.72727" stroke-linecap="round" stroke-linejoin="round"/>
<path d="M24.9468 36.9091H24.959" stroke="#EBBC00" stroke-width="2.72727" stroke-linecap="round" stroke-linejoin="round"/>
</svg>
