<svg width="60" height="61" viewBox="0 0 60 61" fill="none" xmlns="http://www.w3.org/2000/svg">
<rect y="0.5" width="60" height="60" rx="8" fill="#D4E4FD"/>
<path d="M25.4617 33.6771C25.4617 35.4362 26.8117 36.8543 28.4889 36.8543H31.9117C33.3707 36.8543 34.5571 35.6134 34.5571 34.0862C34.5571 32.4225 33.8344 31.8362 32.7571 31.4543L27.2617 29.5452C26.1844 29.1634 25.4617 28.5771 25.4617 26.9134C25.4617 25.3862 26.648 24.1452 28.1071 24.1452H31.5298C33.2071 24.1452 34.5571 25.5634 34.5571 27.3225" stroke="#003E9C" stroke-width="2.04545" stroke-linecap="round" stroke-linejoin="round"/>
<path d="M30 22.3182V38.6818" stroke="#003E9C" stroke-width="2.04545" stroke-linecap="round" stroke-linejoin="round"/>
<path d="M30 44.1364C37.5312 44.1364 43.6364 38.0312 43.6364 30.5C43.6364 22.9688 37.5312 16.8636 30 16.8636C22.4689 16.8636 16.3636 22.9688 16.3636 30.5C16.3636 38.0312 22.4689 44.1364 30 44.1364Z" stroke="#003E9C" stroke-width="2.04545" stroke-linecap="round" stroke-linejoin="round"/>
</svg>
