<svg width="22" height="22" viewBox="0 0 22 22" fill="none" xmlns="http://www.w3.org/2000/svg">
<path d="M18.405 8.42963C16.7786 8.42963 16.1136 7.27944 16.9223 5.86867C17.3896 5.05095 17.111 4.0086 16.2933 3.54133L14.7388 2.65173C14.0289 2.2294 13.1123 2.481 12.69 3.19088L12.5912 3.36161C11.7824 4.77239 10.4525 4.77239 9.63482 3.36161L9.53598 3.19088C9.13162 2.481 8.21506 2.2294 7.50518 2.65173L5.95062 3.54133C5.13291 4.0086 4.85435 5.05994 5.32162 5.87765C6.13933 7.27944 5.47438 8.42963 3.84794 8.42963C2.91341 8.42963 2.14062 9.19343 2.14062 10.1369V11.7185C2.14062 12.653 2.90442 13.4258 3.84794 13.4258C5.47438 13.4258 6.13933 14.576 5.32162 15.9867C4.85435 16.8044 5.13291 17.8468 5.95062 18.3141L7.50518 19.2037C8.21506 19.626 9.13162 19.3744 9.55395 18.6645L9.65279 18.4938C10.4615 17.083 11.7914 17.083 12.6091 18.4938L12.708 18.6645C13.1303 19.3744 14.0469 19.626 14.7568 19.2037L16.3113 18.3141C17.129 17.8468 17.4076 16.7955 16.9403 15.9867C16.1226 14.576 16.7876 13.4258 18.414 13.4258C19.3485 13.4258 20.1213 12.662 20.1213 11.7185V10.1369C20.1123 9.20242 19.3485 8.42963 18.405 8.42963ZM11.1265 13.8481C9.51801 13.8481 8.20607 12.5362 8.20607 10.9277C8.20607 9.31923 9.51801 8.0073 11.1265 8.0073C12.7349 8.0073 14.0469 9.31923 14.0469 10.9277C14.0469 12.5362 12.7349 13.8481 11.1265 13.8481Z" fill="#707070"/>
</svg>
