<svg width="22" height="22" viewBox="0 0 22 22" fill="none" xmlns="http://www.w3.org/2000/svg">
<path d="M11.1261 12.9182C6.62423 12.9182 2.95801 15.9375 2.95801 19.6576C2.95801 19.9092 3.1557 20.1069 3.4073 20.1069H18.845C19.0966 20.1069 19.2943 19.9092 19.2943 19.6576C19.2943 15.9375 15.6281 12.9182 11.1261 12.9182Z" fill="#707070"/>
<path d="M11.1262 2.13525C10.0659 2.13525 9.09542 2.50367 8.32264 3.1237C7.28927 3.94141 6.6333 5.20841 6.6333 6.62818C6.6333 7.47285 6.86693 8.2636 7.28927 8.93754C8.06205 10.2405 9.48182 11.1211 11.1262 11.1211C12.2584 11.1211 13.2918 10.7078 14.0826 9.99787C14.433 9.70134 14.7385 9.34191 14.9722 8.93754C15.3855 8.2636 15.6192 7.47285 15.6192 6.62818C15.6192 4.14808 13.6063 2.13525 11.1262 2.13525ZM13.4536 6.14294L11.0543 8.35346C10.8926 8.50622 10.6859 8.57811 10.4792 8.57811C10.2636 8.57811 10.0479 8.49724 9.88618 8.33549L8.78092 7.22124C8.44844 6.88877 8.44844 6.3586 8.78092 6.02613C9.1134 5.69365 9.64356 5.69365 9.97604 6.02613L10.5062 6.55629L12.3124 4.89391C12.6538 4.57941 13.184 4.59738 13.4985 4.93884C13.813 5.28929 13.795 5.82844 13.4536 6.14294Z" fill="#707070"/>
</svg>
