<svg width="60" height="61" viewBox="0 0 60 61" fill="none" xmlns="http://www.w3.org/2000/svg">
<rect y="0.5" width="60" height="60" rx="8" fill="#E6F0FF"/>
<path d="M38.1818 23.9C38.1 23.8864 38.0046 23.8864 37.9227 23.9C36.0409 23.8318 34.5409 22.2909 34.5409 20.3818C34.5409 18.4318 36.1091 16.8636 38.0591 16.8636C40.0091 16.8636 41.5773 18.4455 41.5773 20.3818C41.5636 22.2909 40.0636 23.8318 38.1818 23.9Z" stroke="#0065FF" stroke-width="2.04545" stroke-linecap="round" stroke-linejoin="round"/>
<path d="M36.7773 33.8273C38.6455 34.1409 40.7045 33.8137 42.15 32.8455C44.0727 31.5637 44.0727 29.4637 42.15 28.1818C40.6909 27.2137 38.6045 26.8864 36.7364 27.2136" stroke="#0065FF" stroke-width="2.04545" stroke-linecap="round" stroke-linejoin="round"/>
<path d="M21.7773 23.9C21.8591 23.8864 21.9546 23.8864 22.0364 23.9C23.9182 23.8318 25.4182 22.2909 25.4182 20.3818C25.4182 18.4318 23.85 16.8636 21.9 16.8636C19.95 16.8636 18.3818 18.4455 18.3818 20.3818C18.3955 22.2909 19.8955 23.8318 21.7773 23.9Z" stroke="#0065FF" stroke-width="2.04545" stroke-linecap="round" stroke-linejoin="round"/>
<path d="M23.1818 33.8273C21.3136 34.1409 19.2545 33.8137 17.8091 32.8455C15.8864 31.5637 15.8864 29.4637 17.8091 28.1818C19.2682 27.2137 21.3545 26.8864 23.2227 27.2136" stroke="#0065FF" stroke-width="2.04545" stroke-linecap="round" stroke-linejoin="round"/>
<path d="M30 34.0864C29.9182 34.0727 29.8227 34.0727 29.7409 34.0864C27.8591 34.0182 26.3591 32.4773 26.3591 30.5682C26.3591 28.6182 27.9273 27.05 29.8773 27.05C31.8273 27.05 33.3955 28.6318 33.3955 30.5682C33.3818 32.4773 31.8818 34.0318 30 34.0864Z" stroke="#0065FF" stroke-width="2.04545" stroke-linecap="round" stroke-linejoin="round"/>
<path d="M26.0318 38.3818C24.1091 39.6636 24.1091 41.7636 26.0318 43.0455C28.2136 44.5045 31.7863 44.5045 33.9682 43.0455C35.8909 41.7636 35.8909 39.6636 33.9682 38.3818C31.8 36.9364 28.2136 36.9364 26.0318 38.3818Z" stroke="#0065FF" stroke-width="2.04545" stroke-linecap="round" stroke-linejoin="round"/>
</svg>
