<svg width="20" height="20" viewBox="0 0 20 20" fill="none" xmlns="http://www.w3.org/2000/svg">
<path d="M15 10.834C14.2167 10.834 13.4917 11.109 12.9167 11.5673C12.15 12.1757 11.6667 13.1173 11.6667 14.1673C11.6667 14.7923 11.8416 15.384 12.15 15.884C12.725 16.8506 13.7833 17.5007 15 17.5007C15.8417 17.5007 16.6083 17.1923 17.1917 16.6673C17.45 16.4507 17.675 16.184 17.85 15.884C18.1583 15.384 18.3333 14.7923 18.3333 14.1673C18.3333 12.3257 16.8417 10.834 15 10.834ZM16.725 13.809L14.95 15.4506C14.8333 15.559 14.675 15.6173 14.525 15.6173C14.3667 15.6173 14.2083 15.559 14.0833 15.434L13.2583 14.609C13.0167 14.3673 13.0167 13.9673 13.2583 13.7256C13.5 13.484 13.9 13.484 14.1417 13.7256L14.5417 14.1257L15.875 12.8923C16.125 12.659 16.525 12.6757 16.7583 12.9257C16.9916 13.1757 16.975 13.5673 16.725 13.809Z" fill="white"/>
<path opacity="0.4" d="M17.5751 17.916C17.5751 18.1493 17.3918 18.3327 17.1585 18.3327H2.84181C2.60847 18.3327 2.42514 18.1493 2.42514 17.916C2.42514 14.466 5.82514 11.666 10.0001 11.666C10.8585 11.666 11.6918 11.7827 12.4585 12.0077C11.9668 12.591 11.6668 13.3493 11.6668 14.166C11.6668 14.791 11.8418 15.3827 12.1501 15.8827C12.3168 16.166 12.5335 16.4243 12.7835 16.641C13.3668 17.1743 14.1418 17.4993 15.0001 17.4993C15.9335 17.4993 16.7751 17.116 17.3751 16.4993C17.5085 16.9493 17.5751 17.4243 17.5751 17.916Z" fill="white"/>
<path d="M10 9.99935C12.3012 9.99935 14.1667 8.13387 14.1667 5.83268C14.1667 3.5315 12.3012 1.66602 10 1.66602C7.69882 1.66602 5.83334 3.5315 5.83334 5.83268C5.83334 8.13387 7.69882 9.99935 10 9.99935Z" fill="white"/>
</svg>
